<mxfile host="app.diagrams.net" modified="2021-12-03T21:36:59.896Z" agent="5.0 (X11)" etag="rm1QTQIB5VRDspWBNk5V" version="15.9.1" type="github">
  <diagram id="2zT74UmwJU5NqXCYLEw7" name="Page-1">
    <mxGraphModel dx="2858" dy="2302" grid="1" gridSize="10" guides="1" tooltips="1" connect="1" arrows="1" fold="1" page="1" pageScale="1" pageWidth="827" pageHeight="1169" math="0" shadow="0">
      <root>
        <mxCell id="0" />
        <mxCell id="1" parent="0" />
        <mxCell id="uH0D5oIkNuhKLUa25MkM-3" value="" style="rounded=0;whiteSpace=wrap;html=1;fillColor=none;" vertex="1" parent="1">
          <mxGeometry x="204" y="390" width="370" height="370" as="geometry" />
        </mxCell>
        <mxCell id="uH0D5oIkNuhKLUa25MkM-4" value="Openstack Cloud" style="text;html=1;resizable=0;autosize=1;align=center;verticalAlign=middle;points=[];fillColor=none;strokeColor=none;rounded=0;" vertex="1" parent="1">
          <mxGeometry x="334" y="290" width="110" height="20" as="geometry" />
        </mxCell>
        <mxCell id="uH0D5oIkNuhKLUa25MkM-13" style="edgeStyle=orthogonalEdgeStyle;rounded=0;orthogonalLoop=1;jettySize=auto;html=1;exitX=0.5;exitY=0;exitDx=0;exitDy=0;endArrow=none;endFill=0;" edge="1" parent="1" source="uH0D5oIkNuhKLUa25MkM-6" target="uH0D5oIkNuhKLUa25MkM-10">
          <mxGeometry relative="1" as="geometry" />
        </mxCell>
        <mxCell id="uH0D5oIkNuhKLUa25MkM-6" value="" style="rounded=1;whiteSpace=wrap;html=1;fillColor=none;" vertex="1" parent="1">
          <mxGeometry x="249.25" y="535" width="126" height="100" as="geometry" />
        </mxCell>
        <mxCell id="uH0D5oIkNuhKLUa25MkM-7" value="juju-net" style="text;html=1;resizable=0;autosize=1;align=center;verticalAlign=middle;points=[];fillColor=none;strokeColor=none;rounded=0;" vertex="1" parent="1">
          <mxGeometry x="287.25" y="635" width="50" height="20" as="geometry" />
        </mxCell>
        <mxCell id="uH0D5oIkNuhKLUa25MkM-14" style="edgeStyle=orthogonalEdgeStyle;rounded=0;orthogonalLoop=1;jettySize=auto;html=1;exitX=0.5;exitY=0;exitDx=0;exitDy=0;endArrow=none;endFill=0;" edge="1" parent="1" source="uH0D5oIkNuhKLUa25MkM-8" target="uH0D5oIkNuhKLUa25MkM-10">
          <mxGeometry relative="1" as="geometry" />
        </mxCell>
        <mxCell id="uH0D5oIkNuhKLUa25MkM-8" value="" style="rounded=1;whiteSpace=wrap;html=1;fillColor=none;" vertex="1" parent="1">
          <mxGeometry x="400.25" y="535" width="125" height="100" as="geometry" />
        </mxCell>
        <mxCell id="uH0D5oIkNuhKLUa25MkM-9" value="public-net" style="text;html=1;resizable=0;autosize=1;align=center;verticalAlign=middle;points=[];fillColor=none;strokeColor=none;rounded=0;" vertex="1" parent="1">
          <mxGeometry x="427.75" y="635" width="70" height="20" as="geometry" />
        </mxCell>
        <mxCell id="uH0D5oIkNuhKLUa25MkM-10" value="" style="verticalLabelPosition=bottom;sketch=0;aspect=fixed;html=1;verticalAlign=top;strokeColor=none;align=center;outlineConnect=0;shape=mxgraph.citrix.router;fillColor=none;" vertex="1" parent="1">
          <mxGeometry x="358.87" y="440" width="60.27" height="40" as="geometry" />
        </mxCell>
        <mxCell id="uH0D5oIkNuhKLUa25MkM-11" value="&lt;div&gt;192.168.222.0/24&lt;/div&gt;&lt;div&gt;DHCP:YES&lt;/div&gt;&lt;div&gt;Desc:&lt;/div&gt;&lt;div&gt;juju instances network&lt;br&gt;&lt;/div&gt;" style="text;html=1;resizable=0;autosize=1;align=center;verticalAlign=middle;points=[];fillColor=none;strokeColor=none;rounded=0;" vertex="1" parent="1">
          <mxGeometry x="245.25" y="555" width="130" height="60" as="geometry" />
        </mxCell>
        <mxCell id="uH0D5oIkNuhKLUa25MkM-12" value="&lt;div&gt;10.2.1.1-10.2.1.252&lt;/div&gt;&lt;div&gt;DHCP:NO&lt;/div&gt;&lt;div&gt;Desc:&lt;/div&gt;&lt;div&gt;Network for floating IPs&lt;br&gt;&lt;/div&gt;" style="text;html=1;resizable=0;autosize=1;align=center;verticalAlign=middle;points=[];fillColor=none;strokeColor=none;rounded=0;" vertex="1" parent="1">
          <mxGeometry x="392.75" y="555" width="140" height="60" as="geometry" />
        </mxCell>
        <mxCell id="uH0D5oIkNuhKLUa25MkM-17" value="" style="rounded=0;whiteSpace=wrap;html=1;fillColor=none;" vertex="1" parent="1">
          <mxGeometry x="-220" y="390" width="370" height="370" as="geometry" />
        </mxCell>
        <mxCell id="uH0D5oIkNuhKLUa25MkM-18" value="microk8s cloud" style="text;html=1;resizable=0;autosize=1;align=center;verticalAlign=middle;points=[];fillColor=none;strokeColor=none;rounded=0;" vertex="1" parent="1">
          <mxGeometry x="-85" y="290" width="100" height="20" as="geometry" />
        </mxCell>
        <mxCell id="uH0D5oIkNuhKLUa25MkM-19" value="" style="rounded=0;whiteSpace=wrap;html=1;fillColor=none;" vertex="1" parent="1">
          <mxGeometry x="630" y="390" width="370" height="370" as="geometry" />
        </mxCell>
        <mxCell id="uH0D5oIkNuhKLUa25MkM-20" value="LXD cloud" style="text;html=1;resizable=0;autosize=1;align=center;verticalAlign=middle;points=[];fillColor=none;strokeColor=none;rounded=0;" vertex="1" parent="1">
          <mxGeometry x="780" y="290" width="70" height="20" as="geometry" />
        </mxCell>
        <mxCell id="uH0D5oIkNuhKLUa25MkM-27" value="" style="rounded=0;whiteSpace=wrap;html=1;fillColor=none;" vertex="1" parent="1">
          <mxGeometry x="204.01" y="850" width="370" height="370" as="geometry" />
        </mxCell>
        <mxCell id="uH0D5oIkNuhKLUa25MkM-28" value="" style="rounded=0;whiteSpace=wrap;html=1;fillColor=none;" vertex="1" parent="1">
          <mxGeometry x="630" y="850" width="370" height="370" as="geometry" />
        </mxCell>
        <mxCell id="uH0D5oIkNuhKLUa25MkM-29" value="" style="rounded=0;whiteSpace=wrap;html=1;fillColor=none;" vertex="1" parent="1">
          <mxGeometry x="-220" y="850" width="370" height="370" as="geometry" />
        </mxCell>
        <mxCell id="uH0D5oIkNuhKLUa25MkM-30" value="" style="rounded=0;whiteSpace=wrap;html=1;fillColor=none;" vertex="1" parent="1">
          <mxGeometry x="-240" y="330" width="410" height="920" as="geometry" />
        </mxCell>
        <mxCell id="uH0D5oIkNuhKLUa25MkM-31" value="network" style="text;html=1;resizable=0;autosize=1;align=center;verticalAlign=middle;points=[];fillColor=none;strokeColor=none;rounded=0;" vertex="1" parent="1">
          <mxGeometry x="-65" y="350" width="60" height="20" as="geometry" />
        </mxCell>
        <mxCell id="uH0D5oIkNuhKLUa25MkM-32" value="network" style="text;html=1;resizable=0;autosize=1;align=center;verticalAlign=middle;points=[];fillColor=none;strokeColor=none;rounded=0;" vertex="1" parent="1">
          <mxGeometry x="359" y="350" width="60" height="20" as="geometry" />
        </mxCell>
        <mxCell id="uH0D5oIkNuhKLUa25MkM-33" value="network" style="text;html=1;resizable=0;autosize=1;align=center;verticalAlign=middle;points=[];fillColor=none;strokeColor=none;rounded=0;" vertex="1" parent="1">
          <mxGeometry x="785" y="340" width="60" height="20" as="geometry" />
        </mxCell>
        <mxCell id="uH0D5oIkNuhKLUa25MkM-34" value="Compute" style="text;html=1;resizable=0;autosize=1;align=center;verticalAlign=middle;points=[];fillColor=none;strokeColor=none;rounded=0;" vertex="1" parent="1">
          <mxGeometry x="-65" y="820" width="60" height="20" as="geometry" />
        </mxCell>
        <mxCell id="uH0D5oIkNuhKLUa25MkM-35" value="Compute" style="text;html=1;resizable=0;autosize=1;align=center;verticalAlign=middle;points=[];fillColor=none;strokeColor=none;rounded=0;" vertex="1" parent="1">
          <mxGeometry x="359" y="820" width="60" height="20" as="geometry" />
        </mxCell>
        <mxCell id="uH0D5oIkNuhKLUa25MkM-36" value="Compute" style="text;html=1;resizable=0;autosize=1;align=center;verticalAlign=middle;points=[];fillColor=none;strokeColor=none;rounded=0;" vertex="1" parent="1">
          <mxGeometry x="785" y="820" width="60" height="20" as="geometry" />
        </mxCell>
        <mxCell id="uH0D5oIkNuhKLUa25MkM-37" value="" style="rounded=0;whiteSpace=wrap;html=1;fillColor=none;" vertex="1" parent="1">
          <mxGeometry x="184" y="330" width="410" height="920" as="geometry" />
        </mxCell>
        <mxCell id="uH0D5oIkNuhKLUa25MkM-38" value="" style="rounded=0;whiteSpace=wrap;html=1;fillColor=none;" vertex="1" parent="1">
          <mxGeometry x="610" y="330" width="410" height="920" as="geometry" />
        </mxCell>
        <mxCell id="uH0D5oIkNuhKLUa25MkM-39" value="" style="rounded=0;whiteSpace=wrap;html=1;fillColor=none;" vertex="1" parent="1">
          <mxGeometry x="-260" y="-50" width="1310" height="1320" as="geometry" />
        </mxCell>
        <mxCell id="uH0D5oIkNuhKLUa25MkM-40" value="Homecloud" style="text;html=1;resizable=0;autosize=1;align=center;verticalAlign=middle;points=[];fillColor=none;strokeColor=none;rounded=0;" vertex="1" parent="1">
          <mxGeometry x="355" y="-80" width="80" height="20" as="geometry" />
        </mxCell>
        <mxCell id="uH0D5oIkNuhKLUa25MkM-41" value="" style="rounded=0;whiteSpace=wrap;html=1;fillColor=none;" vertex="1" parent="1">
          <mxGeometry x="-240" width="1260" height="250" as="geometry" />
        </mxCell>
        <mxCell id="uH0D5oIkNuhKLUa25MkM-42" value="juju" style="text;html=1;resizable=0;autosize=1;align=center;verticalAlign=middle;points=[];fillColor=none;strokeColor=none;rounded=0;" vertex="1" parent="1">
          <mxGeometry x="380" y="-30" width="30" height="20" as="geometry" />
        </mxCell>
      </root>
    </mxGraphModel>
  </diagram>
</mxfile>
